# xmcd CD database file
#
# Track frame offsets:
#	150
#	22179
#	42261
#	62073
#	77347
#	95482
#	120005
#	134758
#	149889
#	169438
#	185109
#	201245
#	218812
#	233500
#	250409
#	265568
#
# Disc length: 3787 seconds
#
# Revision: 1
# Processed by: cddbd v1.5PL3 Copyright (c) Steve Scherf et al.
# Submitted via: CDex 1.51
#
DISCID=ed0ec910
DTITLE=Montgomery Genty - Jim's Mix
DYEAR=1900
DGENRE=Country
TTITLE0=Hell Yeah
TTITLE1=My Town
TTITLE2=She Couldn't Change Me
TTITLE3=Scarecrow
TTITLE4=Speed
TTITLE5=Good Clean Fun
TTITLE6=Hillbilly Shoes
TTITLE7=Lonely and Gone
TTITLE8=Daddy Won't Sell the Farm
TTITLE9=Didn't Your Mama Tell Ya
TTITLE10=All Night Long
TTITLE11=Black Jack Fletcher and Mississippi Sam
TTITLE12=Ramblin' Man
TTITLE13=Carrying On
TTITLE14=Hellbent On Saving Me
TTITLE15=While the World Goes down the Drain
EXTD=
EXTT0=
EXTT1=
EXTT2=
EXTT3=
EXTT4=
EXTT5=
EXTT6=
EXTT7=
EXTT8=
EXTT9=
EXTT10=
EXTT11=
EXTT12=
EXTT13=
EXTT14=
EXTT15=
PLAYORDER=
